<?xml version="1.0" encoding="UTF-8"?>
<svg version="1.1" viewBox="0 0 2000 2000" width="500" height="500" xmlns="http://www.w3.org/2000/svg">
<path transform="translate(960,778)" d="m0 0 4 1 10 6 17 10 56 34 19 12 3 4v115l-110 66-8 4h-2v97h-21l-1-3v-134l5-3 26-15 15-9 24-14 19-11 6-4h2l1-63-4-2-20-12-21-13-15-9-2-2-5 1-9 6-42 26-5 3h-2l-1 96-5 17-5-2-15-9-19-12-1-1v-115l8-5 20-12 28-17 40-24 9-6z" fill="#1D7C89"/>
<path transform="translate(1067,878)" d="m0 0h1l1 82-110 66-8 4h-2v97h-21l-1-3v-134l5-3 26-15 15-9 24-14 19-11 6-4h2l1-31 3 3 1 7 6-1 3-1 1-5h2l1-4 5-3h4l4 1 5 9 4 2v-2h2z" fill="#7DC4CE"/>
<path transform="translate(1341,1027)" d="m0 0 15 2 16 8 7 6 7 10 5 12 2 8v11l-3 12-7 14-5 6-11 8-9 4-11 2h-14l-12-3-10-6-5-5-7-8-5-10-3-14v-11l2-12 7-13 10-10 12-7 10-3zm-6 20-8 3-6 4-7 9-4 11v10l4 11 7 9 11 7 3 1h12l10-4 9-7 5-9 1-3v-19l-4-10-8-8-9-4-4-1z" fill="#143D47"/>
<path transform="translate(1047,1028)" d="m0 0h15l11 3 13 7 9 9 8 15 2 8v18l-4 13-7 11-8 8-9 6-10 3-7 1h-13l-12-3-11-6-5-4-7-9-7-14-1-4v-21l4-12 9-13 8-7 14-7zm4 19-9 2-9 6-6 8-4 13v8l4 11 4 6 8 7 9 4h13l10-5 9-8 4-9 1-6v-10l-3-10-4-6-8-7-8-3z" fill="#143D47"/>
<path transform="translate(1166,1027)" d="m0 0h10l12 3 10 7 6 7 4 10 1 11v63h-19l-1-64-4-8-7-6-7-2h-9l-10 4-6 7-3 8-1 60-1 1h-19l-1-1v-97l1-1h18l1 1 1 10 8-7 10-5z" fill="#15404A"/>
<path transform="translate(1234,1010)" d="m0 0h19l1 1v19l25 1 1 1v17h-26v51l2 8 5 3h13l6-2 3 6 1 10-5 3-11 2h-10l-8-2-6-4-6-7-4-11-1-56h-12l-1-18 1-1h13z" fill="#143E48"/>
<path transform="translate(956,973)" d="m0 0 2 1-3 1-1 4-6 1-2 5-1 3h-2l-1 6 1 5-1 5 1 7 4 2v2l3-1v2l5-1 4 1 8-7 9-2 1 4-2 3-1 3-15 9-8 4h-2v97h-21l-1-3v-134l5-3z" fill="#217F8C"/>
<path transform="translate(811,1024)" d="m0 0h19l12 3 10 6 3 3-1 5-4 3-6-2-9-5-8-2h-12l-12 3-10 7-6 7-6 12-2 9 1 14 4 10 7 9 6 5 12 5 4 1h11l15-5 8-5 3-9 1-12h-31l-1-1v-10h42l1 2v28l-2 5-10 9-14 7-7 2h-21l-10-3-12-7-8-8-7-12-3-11v-21l4-13 6-10 9-9 12-7z" fill="#1F7D8A"/>
<path transform="translate(620,1024)" d="m0 0h39l16 3 10 5 10 9 6 9 4 10 1 4v23l-4 11-6 10-9 9-12 6-12 3-7 1h-36l-1-99zm9 11v81h23l17-2 10-5 7-6 6-10 3-12v-10l-2-10-6-12-10-9-9-4-4-1z" fill="#14404B"/>
<path transform="translate(731,1023)" d="m0 0h12l1 3v101h-13z" fill="#153F49"/>
<path transform="translate(891,1023)" d="m0 0 5 1 1 1v102h-11v-103z" fill="#237F8C"/>
<path transform="translate(865,836)" d="m0 0 4 1h-2l-1 3-2 1v10l-1 9-1 1-1 11 1 19v33l-3 15-4 8h-1v-104l8-5z" fill="#143F49"/>
<path transform="translate(819,1075)" d="m0 0h42l1 2v27h-2l-3-11 2-5-3 1-5-2-31-1-1-1z" fill="#1D7C89"/>
<path transform="translate(860,1080)" d="m0 0h1v24l-2-2-2-9 2-5-3 1-5-2v-2h-2v-2l7-2z" fill="#133B45"/>
</svg>
